<svg height="478" width="720" xmlns="http://www.w3.org/2000/svg">
<rect height="478" fill="#555" width="720"></rect>
<text fill="#7f7" font-family="Courier New" font-size="12" xml:space="preserve">
<tspan x="10" y="26">3 megabytes installed</tspan>
<tspan x="10" y="42"></tspan>
<tspan x="10" y="58">node_modules</tspan>
<tspan x="10" y="74">└─┬ uglifyify@3.0.4 </tspan>
<tspan x="10" y="90">  ├── convert-source-map@1.1.3 </tspan>
<tspan x="10" y="106">  ├── extend@1.3.0 </tspan>
<tspan x="10" y="122">  ├─┬ minimatch@3.0.3 </tspan>
<tspan x="10" y="138">  │ └─┬ brace-expansion@1.1.7 </tspan>
<tspan x="10" y="154">  │   ├── balanced-match@0.4.2 </tspan>
<tspan x="10" y="170">  │   └── concat-map@0.0.1 </tspan>
<tspan x="10" y="186">  ├── through@2.3.8 </tspan>
<tspan x="10" y="202">  └─┬ uglify-js@2.8.22 </tspan>
<tspan x="10" y="218">    ├── source-map@0.5.6 </tspan>
<tspan x="10" y="234">    ├── uglify-to-browserify@1.0.2 </tspan>
<tspan x="10" y="250">    └─┬ yargs@3.10.0 </tspan>
<tspan x="10" y="266">      ├── camelcase@1.2.1 </tspan>
<tspan x="10" y="282">      ├─┬ cliui@2.1.0 </tspan>
<tspan x="10" y="298">      │ ├─┬ center-align@0.1.3 </tspan>
<tspan x="10" y="314">      │ │ ├─┬ align-text@0.1.4 </tspan>
<tspan x="10" y="330">      │ │ │ ├─┬ kind-of@3.1.0 </tspan>
<tspan x="10" y="346">      │ │ │ │ └── is-buffer@1.1.5 </tspan>
<tspan x="10" y="362">      │ │ │ ├── longest@1.0.1 </tspan>
<tspan x="10" y="378">      │ │ │ └── repeat-string@1.6.1 </tspan>
<tspan x="10" y="394">      │ │ └── lazy-cache@1.0.4 </tspan>
<tspan x="10" y="410">      │ ├── right-align@0.1.3 </tspan>
<tspan x="10" y="426">      │ └── wordwrap@0.0.2 </tspan>
<tspan x="10" y="442">      ├── decamelize@1.2.0 </tspan>
<tspan x="10" y="458">      └── window-size@0.1.0</tspan>
</text>
</svg>
